massMuscle_states
version=1
nRows=31
nColumns=15
inDegrees=yes

# SIMM Motion File Header:
name massMuscle_states
datacolumns 15
datarows 31
otherdata 1
range 2.02951384 2.10000000
endheader
time	massToGround_xRotation	massToGround_yRotation	massToGround_zRotation	massToGround_xTranslation	massToGround_yTranslation	massToGround_zTranslation	massToGround_xRotation_u	massToGround_yRotation_u	massToGround_zRotation_u	massToGround_xTranslation_u	massToGround_yTranslation_u	massToGround_zTranslation_u	muscle.activation	muscle.fiber_length
      2.02951384	      0.00000000	      0.00000000	      0.00000000	      0.00000000	      0.29549482	      0.00000000	      0.00000000	      0.00000000	      0.00000000	      0.00000000	     -0.07464987	      0.00000000	      0.33963590	      0.10247228
      2.03233868	      0.00000000	      0.00000000	      0.00000000	      0.00000000	      0.29528355	      0.00000000	      0.00000000	      0.00000000	      0.00000000	      0.00000000	     -0.07491211	      0.00000000	      0.33871545	      0.10268724
      2.03333333	      0.00000000	      0.00000000	      0.00000000	      0.00000000	      0.29520899	      0.00000000	      0.00000000	      0.00000000	      0.00000000	      0.00000000	     -0.07504798	      0.00000000	      0.33839137	      0.10275883
      2.03516352	      0.00000000	      0.00000000	      0.00000000	      0.00000000	      0.29507149	      0.00000000	      0.00000000	      0.00000000	      0.00000000	      0.00000000	     -0.07525682	      0.00000000	      0.33779506	      0.10289508
      2.03798836	      0.00000000	      0.00000000	      0.00000000	      0.00000000	      0.29485850	      0.00000000	      0.00000000	      0.00000000	      0.00000000	      0.00000000	     -0.07550702	      0.00000000	      0.33687473	      0.10311376
      2.04039621	      0.00000000	      0.00000000	      0.00000000	      0.00000000	      0.29467633	      0.00000000	      0.00000000	      0.00000000	      0.00000000	      0.00000000	     -0.07581418	      0.00000000	      0.33609029	      0.10329127
      2.04280405	      0.00000000	      0.00000000	      0.00000000	      0.00000000	      0.29449348	      0.00000000	      0.00000000	      0.00000000	      0.00000000	      0.00000000	     -0.07605569	      0.00000000	      0.33530589	      0.10347610
      2.04591054	      0.00000000	      0.00000000	      0.00000000	      0.00000000	      0.29425669	      0.00000000	      0.00000000	      0.00000000	      0.00000000	      0.00000000	     -0.07641666	      0.00000000	      0.33429396	      0.10371074
      2.04864579	      0.00000000	      0.00000000	      0.00000000	      0.00000000	      0.29404728	      0.00000000	      0.00000000	      0.00000000	      0.00000000	      0.00000000	     -0.07668273	      0.00000000	      0.33340301	      0.10392394
      2.05138104	      0.00000000	      0.00000000	      0.00000000	      0.00000000	      0.29383709	      0.00000000	      0.00000000	      0.00000000	      0.00000000	      0.00000000	     -0.07703089	      0.00000000	      0.33251211	      0.10412979
      2.05411629	      0.00000000	      0.00000000	      0.00000000	      0.00000000	      0.29362600	      0.00000000	      0.00000000	      0.00000000	      0.00000000	      0.00000000	     -0.07728493	      0.00000000	      0.33162126	      0.10434675
      2.05644756	      0.00000000	      0.00000000	      0.00000000	      0.00000000	      0.29344548	      0.00000000	      0.00000000	      0.00000000	      0.00000000	      0.00000000	     -0.07759522	      0.00000000	      0.33086203	      0.10452246
      2.05877884	      0.00000000	      0.00000000	      0.00000000	      0.00000000	      0.29326429	      0.00000000	      0.00000000	      0.00000000	      0.00000000	      0.00000000	     -0.07783983	      0.00000000	      0.33010284	      0.10470569
      2.06178965	      0.00000000	      0.00000000	      0.00000000	      0.00000000	      0.29302941	      0.00000000	      0.00000000	      0.00000000	      0.00000000	      0.00000000	     -0.07820509	      0.00000000	      0.32912240	      0.10493834
      2.06443325	      0.00000000	      0.00000000	      0.00000000	      0.00000000	      0.29282228	      0.00000000	      0.00000000	      0.00000000	      0.00000000	      0.00000000	     -0.07847404	      0.00000000	      0.32826159	      0.10514939
      2.06666667	      0.00000000	      0.00000000	      0.00000000	      0.00000000	      0.29264672	      0.00000000	      0.00000000	      0.00000000	      0.00000000	      0.00000000	     -0.07878455	      0.00000000	      0.32753438	      0.10531967
      2.06707685	      0.00000000	      0.00000000	      0.00000000	      0.00000000	      0.29261440	      0.00000000	      0.00000000	      0.00000000	      0.00000000	      0.00000000	     -0.07882477	      0.00000000	      0.32740083	      0.10535282
      2.06972044	      0.00000000	      0.00000000	      0.00000000	      0.00000000	      0.29240564	      0.00000000	      0.00000000	      0.00000000	      0.00000000	      0.00000000	     -0.07908270	      0.00000000	      0.32654012	      0.10556754
      2.07199060	      0.00000000	      0.00000000	      0.00000000	      0.00000000	      0.29222576	      0.00000000	      0.00000000	      0.00000000	      0.00000000	      0.00000000	     -0.07939701	      0.00000000	      0.32580104	      0.10574249
      2.07426076	      0.00000000	      0.00000000	      0.00000000	      0.00000000	      0.29204523	      0.00000000	      0.00000000	      0.00000000	      0.00000000	      0.00000000	     -0.07964545	      0.00000000	      0.32506199	      0.10592520
      2.07715816	      0.00000000	      0.00000000	      0.00000000	      0.00000000	      0.29181396	      0.00000000	      0.00000000	      0.00000000	      0.00000000	      0.00000000	     -0.08001317	      0.00000000	      0.32411880	      0.10615408
      2.07970558	      0.00000000	      0.00000000	      0.00000000	      0.00000000	      0.29160976	      0.00000000	      0.00000000	      0.00000000	      0.00000000	      0.00000000	     -0.08028364	      0.00000000	      0.32328958	      0.10636237
      2.08225300	      0.00000000	      0.00000000	      0.00000000	      0.00000000	      0.29140483	      0.00000000	      0.00000000	      0.00000000	      0.00000000	      0.00000000	     -0.08063545	      0.00000000	      0.32246041	      0.10656278
      2.08480042	      0.00000000	      0.00000000	      0.00000000	      0.00000000	      0.29119905	      0.00000000	      0.00000000	      0.00000000	      0.00000000	      0.00000000	     -0.08089747	      0.00000000	      0.32163129	      0.10677442
      2.08703407	      0.00000000	      0.00000000	      0.00000000	      0.00000000	      0.29101801	      0.00000000	      0.00000000	      0.00000000	      0.00000000	      0.00000000	     -0.08121767	      0.00000000	      0.32090433	      0.10695052
      2.08926771	      0.00000000	      0.00000000	      0.00000000	      0.00000000	      0.29083630	      0.00000000	      0.00000000	      0.00000000	      0.00000000	      0.00000000	     -0.08147137	      0.00000000	      0.32017741	      0.10713470
      2.09202214	      0.00000000	      0.00000000	      0.00000000	      0.00000000	      0.29061142	      0.00000000	      0.00000000	      0.00000000	      0.00000000	      0.00000000	     -0.08183874	      0.00000000	      0.31928105	      0.10735686
      2.09446442	      0.00000000	      0.00000000	      0.00000000	      0.00000000	      0.29041119	      0.00000000	      0.00000000	      0.00000000	      0.00000000	      0.00000000	     -0.08210846	      0.00000000	      0.31848632	      0.10756143
      2.09690670	      0.00000000	      0.00000000	      0.00000000	      0.00000000	      0.29021027	      0.00000000	      0.00000000	      0.00000000	      0.00000000	      0.00000000	     -0.08245892	      0.00000000	      0.31769163	      0.10775782
      2.09934898	      0.00000000	      0.00000000	      0.00000000	      0.00000000	      0.29000852	      0.00000000	      0.00000000	      0.00000000	      0.00000000	      0.00000000	     -0.08272524	      0.00000000	      0.31689699	      0.10796501
      2.10000000	      0.00000000	      0.00000000	      0.00000000	      0.00000000	      0.28995464	      0.00000000	      0.00000000	      0.00000000	      0.00000000	      0.00000000	     -0.08283745	      0.00000000	      0.31668517	      0.10801567
